<?xml version="1.0" standalone="yes"?>
<svg xmlns="http://www.w3.org/2000/svg" width="1664" height="921">
<path style="fill:#ffffff; stroke:none;" d="M0 0L0 920L1664 920L1664 0L0 0z"/>
<path style="fill:#cac8ca; stroke:none;" d="M945 132C947.613 133.098 950.164 132.993 953 133C950.387 131.902 947.836 132.007 945 132z"/>
<path style="fill:#f2eff2; stroke:none;" d="M704 133C707.432 134.44 711.3 134 715 134C711.568 132.56 707.7 133 704 133M761 133C764.697 134.552 769.017 134 773 134C769.303 132.448 764.983 133 761 133z"/>
<path style="fill:#decec4; stroke:none;" d="M831 133L832 134L831 133z"/>
<path style="fill:#969796; stroke:none;" d="M832 133C833.769 133.779 835.036 133.912 837 134C835.231 133.221 833.964 133.088 832 133z"/>
<path style="fill:#b7cede; stroke:none;" d="M837 133L838 134L837 133z"/>
<path style="fill:#f2eff2; stroke:none;" d="M872 133C878.445 135.704 888.032 134 895 134C888.555 131.296 878.968 133 872 133z"/>
<path style="fill:#b06d33; stroke:none;" d="M943 133L943 141C944.161 138.23 944.161 135.77 943 133z"/>
<path style="fill:#333333; stroke:none;" d="M944 133C943.974 136.122 943.724 138.96 943 142C939.062 140.42 933.876 139.688 930.742 143.43C925.765 149.373 929.647 160.153 937.995 158.722C940.279 158.331 942.061 157.178 944 156C946.173 159.352 949.231 158.987 953 159L953 133L944 133z"/>
<path style="fill:#3a71b7; stroke:none;" d="M953 133L954 134L953 133z"/>
<path style="fill:#dec8b0; stroke:none;" d="M962 133L963 134L962 133z"/>
<path style="fill:#a38e7b; stroke:none;" d="M963 133L964 134L963 133z"/>
<path style="fill:#333333; stroke:none;" d="M958 140C961.049 139.546 963.908 138.949 967 139C965.724 141.483 962.449 143.532 961.751 146.15C960.951 149.149 964.481 150.245 966.745 149.381C969.805 148.214 976.202 142.383 976.454 139.028C976.723 135.441 972.98 133.658 969.996 133.218C964.448 132.399 958.954 134.154 958 140z"/>
<path style="fill:#7b97b0; stroke:none;" d="M972 133L973 134L972 133z"/>
<path style="fill:#ebb875; stroke:none;" d="M702 134L703 135L702 134z"/>
<path style="fill:#333333; stroke:none;" d="M703 134C702.709 137.685 702.042 141.291 702.004 145C701.936 151.598 701.633 159.186 709.996 158.976C711.721 158.933 713.8 158.877 714.972 157.397C717.684 153.973 716.165 144.185 715.981 140.005C715.904 138.272 715.892 136.212 714.397 135.028C711.777 132.953 706.145 134 703 134z"/>
<path style="fill:#33538f; stroke:none;" d="M715 134L716 135L715 134z"/>
<path style="fill:#9c5a3a; stroke:none;" d="M760 134L761 135L760 134z"/>
<path style="fill:#333333; stroke:none;" d="M773 134C769.855 134 764.223 132.953 761.603 135.028C760.108 136.212 760.096 138.271 760.019 140.005C759.835 144.185 758.316 153.973 761.028 157.397C763.28 160.24 770.779 159.612 772.682 156.682C774.725 153.538 774.016 148.557 773.999 145C773.981 141.265 773.467 137.693 773 134z"/>
<path style="fill:#6eb1e5; stroke:none;" d="M773 134L774 135L773 134z"/>
<path style="fill:#deab7b; stroke:none;" d="M829 134L830 135L829 134z"/>
<path style="fill:#333333; stroke:none;" d="M817 159C822.18 158.599 824.712 153.844 829.997 154.078C833.893 154.25 835.706 157.13 839.089 158.401C842.939 159.847 848.193 159.125 852 158C850.187 151.836 846.269 146.493 843.011 141.001C841.645 138.699 840.399 135.732 837.787 134.603C835.26 133.512 831.538 133.881 829.39 135.603C823.887 140.015 818.215 152.188 817 159z"/>
<path style="fill:#9cd5f8; stroke:none;" d="M839 134L840 135L839 134z"/>
<path style="fill:#965a3a; stroke:none;" d="M871 134L872 135L871 134z"/>
<path style="fill:#333333; stroke:none;" d="M893 148C891.544 143.613 888.15 144.015 884 144C885.069 137.298 890.337 138.001 896 138C894.44 133.298 890.367 134.002 886 134C882.525 133.998 874.467 132.523 872.028 135.603C870.228 137.876 871 142.307 871 145C871 152.304 870.191 161.842 880.852 158.682C884.925 157.475 883.14 153.136 885.028 150.318C886.771 147.714 890.262 148.032 893 148z"/>
<path style="fill:#5491d1; stroke:none;" d="M895 134L896 135L895 134z"/>
<path style="fill:#33336e; stroke:none;" d="M953 134L953 141C954.059 138.466 954.059 136.534 953 134z"/>
<path style="fill:#b0e8ff; stroke:none;" d="M954 134L954 141C955.059 138.466 955.059 136.534 954 134z"/>
<path style="fill:#a37d61; stroke:none;" d="M960 134L961 135L960 134z"/>
<path style="fill:#406a9c; stroke:none;" d="M974 134L975 135L974 134z"/>
<path style="fill:#ffe8b0; stroke:none;" d="M701 135L701 139C701.71 137.24 701.71 136.76 701 135z"/>
<path style="fill:#6e3333; stroke:none;" d="M702 135L702 139C702.71 137.24 702.71 136.76 702 135z"/>
<path style="fill:#7bbbf2; stroke:none;" d="M716 135L717 136L716 135z"/>
<path style="fill:#dea85b; stroke:none;" d="M759.333 135.667C759.278 135.722 759.222 136.778 759.667 136.333C759.722 136.278 759.778 135.222 759.333 135.667z"/>
<path style="fill:#33336e; stroke:none;" d="M773 135L773 138C773.696 136.447 773.696 136.554 773 135z"/>
<path style="fill:#dec8b0; stroke:none;" d="M786 135L787 136L786 135z"/>
<path style="fill:#969796; stroke:none;" d="M787 135C788.248 135.685 788.549 135.749 790 136C788.752 135.315 788.452 135.251 787 135z"/>
<path style="fill:#b0c1d8; stroke:none;" d="M790 135L791 136L790 135z"/>
<path style="fill:#d8a15b; stroke:none;" d="M828 135L829 136L828 135z"/>
<path style="fill:#d1913a; stroke:none;" d="M870 135L871 136L870 135z"/>
<path style="fill:#8fceff; stroke:none;" d="M896 135L896 138C896.696 136.446 896.696 136.554 896 135z"/>
<path style="fill:#d1a168; stroke:none;" d="M958 135L959 136L958 135z"/>
<path style="fill:#b0e5ff; stroke:none;" d="M976 135L977 136L976 135z"/>
<path style="fill:#336db0; stroke:none;" d="M716 136L716 145C717.256 142.006 717.256 138.994 716 136z"/>
<path style="fill:#8fceff; stroke:none;" d="M774 136L774 145C775.256 142.006 775.256 138.994 774 136z"/>
<path style="fill:#ffe2b7; stroke:none;" d="M784 136L785 137L784 136z"/>
<path style="fill:#825a3a; stroke:none;" d="M785 136L786 137L785 136z"/>
<path style="fill:#333333; stroke:none;" d="M778 145C781.953 147.563 779.874 151.198 782.028 154.853C785.181 160.204 793.002 158.391 798 158L798 153C792.432 153.177 791.167 150.141 791 145L797 145L797 141L791 141L791 136C785.103 136.323 779.795 139.115 778 145z"/>
<path style="fill:#6eb1eb; stroke:none;" d="M791 136L791 141C791.83 138.97 791.83 138.03 791 136z"/>
<path style="fill:#ffdfa9; stroke:none;" d="M827 136L828 137L827 136z"/>
<path style="fill:#4d8eca; stroke:none;" d="M840 136L841 137L840 136z"/>
<path style="fill:#ffffd1; stroke:none;" d="M869 136L869 157C871.153 151.869 871.153 141.131 869 136z"/>
<path style="fill:#8f3333; stroke:none;" d="M870 136L870 157C872.153 151.869 872.153 141.131 870 136z"/>
<path style="fill:#d19154; stroke:none;" d="M957 136L958 137L957 136z"/>
<path style="fill:#3360a9; stroke:none;" d="M976 136L977 137L976 136z"/>
<path style="fill:#d19133; stroke:none;" d="M759.333 137.667C759.278 137.722 759.222 138.778 759.667 138.333C759.722 138.278 759.778 137.222 759.333 137.667z"/>
<path style="fill:#ebc58f; stroke:none;" d="M783 137L784 138L783 137z"/>
<path style="fill:#b06d33; stroke:none;" d="M827 137L828 138L827 137z"/>
<path style="fill:#9cd8ff; stroke:none;" d="M841 137L842 138L841 137z"/>
<path style="fill:#ffefb7; stroke:none;" d="M956.333 137.667C956.278 137.722 956.222 138.778 956.667 138.333C956.722 138.278 956.778 137.222 956.333 137.667z"/>
<path style="fill:#753333; stroke:none;" d="M957.333 137.667C957.278 137.722 957.222 138.778 957.667 138.333C957.722 138.278 957.778 137.222 957.333 137.667z"/>
<path style="fill:#6eb1eb; stroke:none;" d="M977 137L977 141C977.71 139.24 977.71 138.76 977 137z"/>
<path style="fill:#deab75; stroke:none;" d="M782 138L783 139L782 138z"/>
<path style="fill:#f8c589; stroke:none;" d="M826 138L827 139L826 138z"/>
<path style="fill:#3360a9; stroke:none;" d="M841 138L842 139L841 138z"/>
<path style="fill:#3a5a7b; stroke:none;" d="M885 138L886 139L885 138z"/>
<path style="fill:#969796; stroke:none;" d="M886 138C888.89 139.213 891.874 138.998 895 139C892.11 137.787 889.126 138.002 886 138z"/>
<path style="fill:#b0d2eb; stroke:none;" d="M895 138L896 139L895 138z"/>
<path style="fill:#5b5a47; stroke:none;" d="M963.667 138.333C963.222 138.778 964.278 138.722 964.333 138.667C964.778 138.222 963.722 138.278 963.667 138.333z"/>
<path style="fill:#ffce8f; stroke:none;" d="M701 139L701 153C702.667 149.028 702.667 142.972 701 139z"/>
<path style="fill:#b06d33; stroke:none;" d="M759 139L759 153C760.667 149.028 760.667 142.972 759 139z"/>
<path style="fill:#bd8154; stroke:none;" d="M781 139L782 140L781 139z"/>
<path style="fill:#9c5333; stroke:none;" d="M826 139L827 140L826 139z"/>
<path style="fill:#6eb5eb; stroke:none;" d="M842 139L843 140L842 139z"/>
<path style="fill:#333382; stroke:none;" d="M884 139L885 140L884 139z"/>
<path style="fill:#e5b16e; stroke:none;" d="M957 139L958 140L957 139z"/>
<path style="fill:#82b1d8; stroke:none;" d="M961 139L962 140L961 139z"/>
<path style="fill:#894d33; stroke:none;" d="M966 139L967 140L966 139z"/>
<path style="fill:#969796; stroke:none;" d="M727 140C728.248 140.685 728.548 140.749 730 141C728.752 140.315 728.452 140.251 727 140z"/>
<path style="fill:#5b5d5b; stroke:none;" d="M730 140C731.248 140.685 731.549 140.749 733 141C731.752 140.315 731.452 140.251 730 140z"/>
<path style="fill:#96abb7; stroke:none;" d="M733.667 140.333C733.222 140.778 734.278 140.722 734.333 140.667C734.778 140.222 733.722 140.278 733.667 140.333z"/>
<path style="fill:#96643a; stroke:none;" d="M780 140L781 141L780 140z"/>
<path style="fill:#ebb16e; stroke:none;" d="M825 140L826 141L825 140z"/>
<path style="fill:#333d89; stroke:none;" d="M842 140L843 141L842 140z"/>
<path style="fill:#336db0; stroke:none;" d="M884 140L884 144C884.71 142.24 884.71 141.759 884 140z"/>
<path style="fill:#a39796; stroke:none;" d="M906.667 140.333C906.222 140.778 907.278 140.722 907.333 140.667C907.778 140.222 906.722 140.278 906.667 140.333z"/>
<path style="fill:#5b5d5b; stroke:none;" d="M908 140C909.506 140.683 910.315 140.826 912 141C910.494 140.317 909.685 140.174 908 140z"/>
<path style="fill:#333333; stroke:none;" d="M902 146C906.745 144.932 909.591 144.011 913 148C909.861 148.002 905.967 147.509 903.148 149.179C899.737 151.2 899.07 156.676 903.148 158.393C906.339 159.736 910.006 158.091 913 157C915.431 159.782 919.491 159 923 159C923 154.631 924.462 146.969 921.397 143.434C916.959 138.316 903.97 139.511 902 146z"/>
<path style="fill:#5b5d5b; stroke:none;" d="M913 140C914.248 140.685 914.548 140.749 916 141C914.752 140.315 914.452 140.251 913 140z"/>
<path style="fill:#9697a9; stroke:none;" d="M916 140L917 141L916 140z"/>
<path style="fill:#b7cede; stroke:none;" d="M917 140L918 141L917 140z"/>
<path style="fill:#b0a189; stroke:none;" d="M934 140L935 141L934 140z"/>
<path style="fill:#5b5a47; stroke:none;" d="M935.667 140.333C935.222 140.778 936.278 140.722 936.333 140.667C936.778 140.222 935.722 140.278 935.667 140.333z"/>
<path style="fill:#7587a3; stroke:none;" d="M939 140L940 141L939 140z"/>
<path style="fill:#b0c8de; stroke:none;" d="M940 140L941 141L940 140z"/>
<path style="fill:#ebc8a3; stroke:none;" d="M958 140L959 141L958 140z"/>
<path style="fill:#8987a3; stroke:none;" d="M959 140L960 141L959 140z"/>
<path style="fill:#c48133; stroke:none;" d="M966.333 140.667C966.278 140.722 966.222 141.778 966.667 141.333C966.722 141.278 966.778 140.222 966.333 140.667z"/>
<path style="fill:#b7916e; stroke:none;" d="M724 141L725 142L724 141z"/>
<path style="fill:#333333; stroke:none;" d="M730 153L730 155C726.663 155.504 724.211 154.992 721 154C722.778 159.629 732.767 161.126 737.566 157.821C740.964 155.481 740.149 150.496 736.877 148.573C735.382 147.695 733.655 147.399 732 147L732 145C734.647 144.82 736.469 145.181 739 146C737.988 140.171 727.727 138.695 723.603 142.742C720.943 145.353 722.176 149.547 725.123 151.197C726.615 152.032 728.39 152.469 730 153z"/>
<path style="fill:#617da3; stroke:none;" d="M737 141L738 142L737 141z"/>
<path style="fill:#8f5a3a; stroke:none;" d="M778 141L779 142L778 141z"/>
<path style="fill:#82bef2; stroke:none;" d="M797 141L798 142L797 141z"/>
<path style="fill:#893d33; stroke:none;" d="M825 141L826 142L825 141z"/>
<path style="fill:#4d91d1; stroke:none;" d="M843 141L844 142L843 141z"/>
<path style="fill:#d1b18f; stroke:none;" d="M903 141L904 142L903 141z"/>
<path style="fill:#47718f; stroke:none;" d="M919 141L920 142L919 141z"/>
<path style="fill:#b7d8f2; stroke:none;" d="M920 141L921 142L920 141z"/>
<path style="fill:#f8dbb0; stroke:none;" d="M931 141L932 142L931 141z"/>
<path style="fill:#896040; stroke:none;" d="M932 141L933 142L932 141z"/>
<path style="fill:#9cb8a3; stroke:none;" d="M942 141L943 142L942 141z"/>
<path style="fill:#8fceff; stroke:none;" d="M954 141L954 149C955.161 146.23 955.161 143.77 954 141z"/>
<path style="fill:#3360a9; stroke:none;" d="M976 141L977 142L976 141z"/>
<path style="fill:#f8ce96; stroke:none;" d="M722 142L723 143L722 142z"/>
<path style="fill:#75b5e5; stroke:none;" d="M739 142L740 143L739 142z"/>
<path style="fill:#f8c589; stroke:none;" d="M777 142L777 145C777.696 143.446 777.696 143.554 777 142z"/>
<path style="fill:#3391d1; stroke:none;" d="M797 142L797 145C797.696 143.446 797.696 143.554 797 142z"/>
<path style="fill:#d1914d; stroke:none;" d="M824 142L825 143L824 142z"/>
<path style="fill:#a9dfff; stroke:none;" d="M844 142L845 143L844 142z"/>
<path style="fill:#895333; stroke:none;" d="M902 142L903 143L902 142z"/>
<path style="fill:#5b97ca; stroke:none;" d="M921 142L922 143L921 142z"/>
<path style="fill:#e5bb82; stroke:none;" d="M930 142L931 143L930 142z"/>
<path style="fill:#d19e61; stroke:none;" d="M965 142L966 143L965 142z"/>
<path style="fill:#3a649c; stroke:none;" d="M975 142L976 143L975 142z"/>
<path style="fill:#ffe5b0; stroke:none;" d="M721 143L722 144L721 143z"/>
<path style="fill:#333d96; stroke:none;" d="M739.333 143.667C739.278 143.722 739.222 144.778 739.667 144.333C739.722 144.278 739.778 143.222 739.333 143.667z"/>
<path style="fill:#d1ffff; stroke:none;" d="M740.333 143.667C740.278 143.722 740.222 144.778 740.667 144.333C740.722 144.278 740.778 143.222 740.333 143.667z"/>
<path style="fill:#ffdfa9; stroke:none;" d="M823 143L824 144L823 143z"/>
<path style="fill:#336db0; stroke:none;" d="M844 143L845 144L844 143z"/>
<path style="fill:#ebb56e; stroke:none;" d="M901.333 143.667C901.278 143.722 901.222 144.778 901.667 144.333C901.722 144.278 901.778 143.222 901.333 143.667z"/>
<path style="fill:#5491d1; stroke:none;" d="M922 143L923 144L922 143z"/>
<path style="fill:#f8ce8f; stroke:none;" d="M929 143L930 144L929 143z"/>
<path style="fill:#c4ab89; stroke:none;" d="M963 143L964 144L963 143z"/>
<path style="fill:#8fb8d8; stroke:none;" d="M974 143L975 144L974 143z"/>
<path style="fill:#ca8a3a; stroke:none;" d="M721 144L722 145L721 144z"/>
<path style="fill:#969796; stroke:none;" d="M733.667 144.333C733.222 144.778 734.278 144.722 734.333 144.667C734.778 144.222 733.722 144.278 733.667 144.333z"/>
<path style="fill:#897454; stroke:none;" d="M735 144L736 145L735 144z"/>
<path style="fill:#bd7a3a; stroke:none;" d="M823 144L824 145L823 144z"/>
<path style="fill:#61a8de; stroke:none;" d="M828 144L829 145L828 144z"/>
<path style="fill:#ffffff; stroke:none;" d="M829 144C828.11 145.745 827.547 147.125 827 149L832 149C831.251 146.746 830.656 145.687 829 144z"/>
<path style="fill:#e5ae6e; stroke:none;" d="M830 144L831 145L830 144z"/>
<path style="fill:#7bbbf2; stroke:none;" d="M845 144L846 145L845 144z"/>
<path style="fill:#546a89; stroke:none;" d="M892 144L893 145L892 144z"/>
<path style="fill:#969796; stroke:none;" d="M907 144C908.248 144.685 908.549 144.749 910 145C908.752 144.315 908.451 144.251 907 144z"/>
<path style="fill:#897147; stroke:none;" d="M910 144L911 145L910 144z"/>
<path style="fill:#9cd8ff; stroke:none;" d="M923 144L924 145L923 144z"/>
<path style="fill:#8f4d33; stroke:none;" d="M929 144L930 145L929 144z"/>
<path style="fill:#f8d59c; stroke:none;" d="M961 144L962 145L961 144z"/>
<path style="fill:#8fb8d8; stroke:none;" d="M972 144L973 145L972 144z"/>
<path style="fill:#33338f; stroke:none;" d="M716 145L716 149C716.71 147.24 716.71 146.76 716 145z"/>
<path style="fill:#ffe8b0; stroke:none;" d="M720 145L720 148C720.696 146.446 720.696 146.554 720 145z"/>
<path style="fill:#6e3333; stroke:none;" d="M721 145L721 149C721.71 147.24 721.71 146.76 721 145z"/>
<path style="fill:#33336e; stroke:none;" d="M732.333 145.667C732.278 145.722 732.222 146.778 732.667 146.333C732.722 146.278 732.778 145.222 732.333 145.667z"/>
<path style="fill:#b0845b; stroke:none;" d="M737 145L738 146L737 145z"/>
<path style="fill:#5497d1; stroke:none;" d="M739 145L740 146L739 145z"/>
<path style="fill:#6eb1eb; stroke:none;" d="M774 145L774 149C774.71 147.241 774.71 146.759 774 145z"/>
<path style="fill:#d8c8b0; stroke:none;" d="M779 145L780 146L779 145z"/>
<path style="fill:#b06d33; stroke:none;" d="M780 145L780 153C781.161 150.23 781.161 147.77 780 145z"/>
<path style="fill:#4d87b0; stroke:none;" d="M791 145L792 146L791 145z"/>
<path style="fill:#cac8ca; stroke:none;" d="M792 145C793.506 145.683 794.315 145.826 796 146C794.494 145.317 793.685 145.174 792 145z"/>
<path style="fill:#f8ce8f; stroke:none;" d="M822 145L823 146L822 145z"/>
<path style="fill:#333d89; stroke:none;" d="M827 145L828 146L827 145z"/>
<path style="fill:#893d33; stroke:none;" d="M831 145L832 146L831 145z"/>
<path style="fill:#334d8f; stroke:none;" d="M845 145L846 146L845 145z"/>
<path style="fill:#6eb1eb; stroke:none;" d="M893 145L893 148C893.696 146.446 893.696 146.554 893 145z"/>
<path style="fill:#ffe8b7; stroke:none;" d="M901 145L902 146L901 145z"/>
<path style="fill:#5b84b0; stroke:none;" d="M904 145L905 146L904 145z"/>
<path style="fill:#f2c88f; stroke:none;" d="M911 145L912 146L911 145z"/>
<path style="fill:#335da9; stroke:none;" d="M923.333 145.667C923.278 145.722 923.222 146.778 923.667 146.333C923.722 146.278 923.778 145.222 923.333 145.667z"/>
<path style="fill:#f2b875; stroke:none;" d="M928 145L929 146L928 145z"/>
<path style="fill:#ffce8f; stroke:none;" d="M960 145L960 149C960.71 147.24 960.71 146.759 960 145z"/>
<path style="fill:#619ed1; stroke:none;" d="M970 145L971 146L970 145z"/>
<path style="fill:#a9e2ff; stroke:none;" d="M733 146L734 147L733 146z"/>
<path style="fill:#6eb1eb; stroke:none;" d="M791 146L791 152C791.951 149.715 791.951 148.285 791 146z"/>
<path style="fill:#a96033; stroke:none;" d="M822 146L823 147L822 146z"/>
<path style="fill:#61abe5; stroke:none;" d="M827 146L828 147L827 146z"/>
<path style="fill:#e5ab61; stroke:none;" d="M831 146L832 147L831 146z"/>
<path style="fill:#549ed8; stroke:none;" d="M846 146L847 147L846 146z"/>
<path style="fill:#b06d33; stroke:none;" d="M912.333 146.667C912.278 146.722 912.222 147.778 912.667 147.333C912.722 147.278 912.778 146.222 912.333 146.667z"/>
<path style="fill:#d1ffff; stroke:none;" d="M924 146L924 158C925.512 154.396 925.512 149.604 924 146z"/>
<path style="fill:#bd7a33; stroke:none;" d="M928 146L929 147L928 146z"/>
<path style="fill:#9ccee5; stroke:none;" d="M939 146L940 147L939 146z"/>
<path style="fill:#ffffff; stroke:none;" d="M940 146C939.278 148.418 939.052 150.472 939 153L942 153C941.917 150.092 941.759 148.308 940 146z"/>
<path style="fill:#d1a175; stroke:none;" d="M941 146L942 147L941 146z"/>
<path style="fill:#549ed8; stroke:none;" d="M969 146L970 147L969 146z"/>
<path style="fill:#6891b0; stroke:none;" d="M734 147L735 148L734 147z"/>
<path style="fill:#ebb16e; stroke:none;" d="M821 147L822 148L821 147z"/>
<path style="fill:#333d89; stroke:none;" d="M826 147L827 148L826 147z"/>
<path style="fill:#a9dfff; stroke:none;" d="M847 147L848 148L847 147z"/>
<path style="fill:#cac8ca; stroke:none;" d="M906 147C907.248 147.685 907.548 147.749 909 148C907.752 147.315 907.452 147.251 906 147z"/>
<path style="fill:#33338f; stroke:none;" d="M923 147L923 158C924.431 154.59 924.431 150.41 923 147z"/>
<path style="fill:#ffe8b0; stroke:none;" d="M927 147L927 153C927.951 150.715 927.951 149.285 927 147z"/>
<path style="fill:#6e3333; stroke:none;" d="M928 147L928 154C929.059 151.466 929.059 149.534 928 147z"/>
<path style="fill:#b0e5ff; stroke:none;" d="M938 147L938 152C938.83 149.97 938.83 149.03 938 147z"/>
<path style="fill:#ca8a3a; stroke:none;" d="M942 147L943 148L942 147z"/>
<path style="fill:#8fceff; stroke:none;" d="M969 147L969 150C969.696 148.446 969.696 148.554 969 147z"/>
<path style="fill:#7591b0; stroke:none;" d="M737 148L738 149L737 148z"/>
<path style="fill:#893d33; stroke:none;" d="M821 148L822 149L821 148z"/>
<path style="fill:#3391d1; stroke:none;" d="M826 148L827 149L826 148z"/>
<path style="fill:#b06733; stroke:none;" d="M832 148L833 149L832 148z"/>
<path style="fill:#3a7abd; stroke:none;" d="M847 148L848 149L847 148z"/>
<path style="fill:#969796; stroke:none;" d="M885 148C887.332 148.985 889.457 148.981 892 149C889.669 148.015 887.543 148.019 885 148z"/>
<path style="fill:#b0c8de; stroke:none;" d="M892 148L893 149L892 148z"/>
<path style="fill:#e5c8a3; stroke:none;" d="M902 148L903 149L902 148z"/>
<path style="fill:#7b6a54; stroke:none;" d="M903 148L904 149L903 148z"/>
<path style="fill:#ebb16e; stroke:none;" d="M942 148L942 152C942.71 150.24 942.71 149.76 942 148z"/>
<path style="fill:#336db0; stroke:none;" d="M716 149L716 155C716.951 152.715 716.951 151.285 716 149z"/>
<path style="fill:#f2bb7b; stroke:none;" d="M721 149L722 150L721 149z"/>
<path style="fill:#75b5e5; stroke:none;" d="M739 149L740 150L739 149z"/>
<path style="fill:#8fceff; stroke:none;" d="M774 149L774 155C774.951 152.715 774.951 151.285 774 149z"/>
<path style="fill:#d89e54; stroke:none;" d="M820 149L821 150L820 149z"/>
<path style="fill:#969796; stroke:none;" d="M827 149C828.769 149.779 830.036 149.912 832 150C830.231 149.221 828.964 149.088 827 149z"/>
<path style="fill:#89c5f8; stroke:none;" d="M848 149L849 150L848 149z"/>
<path style="fill:#336db0; stroke:none;" d="M884 149L884 158C885.256 155.006 885.256 151.994 884 149z"/>
<path style="fill:#9c643a; stroke:none;" d="M901 149L902 150L901 149z"/>
<path style="fill:#333368; stroke:none;" d="M937.333 149.667C937.278 149.722 937.222 150.778 937.667 150.333C937.722 150.278 937.778 149.222 937.333 149.667z"/>
<path style="fill:#33336e; stroke:none;" d="M953 149L953 158C954.256 155.006 954.256 151.994 953 149z"/>
<path style="fill:#b0e8ff; stroke:none;" d="M954 149L954 158C955.256 155.006 955.256 151.994 954 149z"/>
<path style="fill:#b7713a; stroke:none;" d="M961 149L962 150L961 149z"/>
<path style="fill:#334382; stroke:none;" d="M968 149L969 150L968 149z"/>
<path style="fill:#e5bb89; stroke:none;" d="M722 150L723 151L722 150z"/>
<path style="fill:#9cd8ff; stroke:none;" d="M740 150L741 151L740 150z"/>
<path style="fill:#ffe8b0; stroke:none;" d="M819 150L820 151L819 150z"/>
<path style="fill:#335396; stroke:none;" d="M848 150L849 151L848 150z"/>
<path style="fill:#8f5333; stroke:none;" d="M900 150L901 151L900 150z"/>
<path style="fill:#5b84a9; stroke:none;" d="M909 150L910 151L909 150z"/>
<path style="fill:#cac19c; stroke:none;" d="M910.667 150.333C910.222 150.778 911.278 150.722 911.333 150.667C911.778 150.222 910.722 150.278 910.667 150.333z"/>
<path style="fill:#cac8ca; stroke:none;" d="M963 150C964.81 151.24 964.777 151.184 967 151C965.494 150.317 964.685 150.174 963 150z"/>
<path style="fill:#e5d5b7; stroke:none;" d="M724 151L725 152L724 151z"/>
<path style="fill:#a98775; stroke:none;" d="M725 151L726 152L725 151z"/>
<path style="fill:#334d9c; stroke:none;" d="M740 151L740 155C740.71 153.24 740.71 152.76 740 151z"/>
<path style="fill:#c4873a; stroke:none;" d="M819 151L820 152L819 151z"/>
<path style="fill:#61a8de; stroke:none;" d="M849 151L850 152L849 151z"/>
<path style="fill:#d1914d; stroke:none;" d="M899 151L900 152L899 151z"/>
<path style="fill:#6eb1eb; stroke:none;" d="M908 151L908 154C908.696 152.446 908.696 152.554 908 151z"/>
<path style="fill:#ffffeb; stroke:none;" d="M909 151C909.674 153.297 909.965 153.774 912 155L912 151L909 151z"/>
<path style="fill:#b06d33; stroke:none;" d="M912 151L912 155C912.71 153.241 912.71 152.76 912 151z"/>
<path style="fill:#f2d5b0; stroke:none;" d="M727 152L728 153L727 152z"/>
<path style="fill:#825a3a; stroke:none;" d="M728 152L729 153L728 152z"/>
<path style="fill:#d1ffff; stroke:none;" d="M741.333 152.667C741.278 152.722 741.222 153.778 741.667 153.333C741.722 153.278 741.778 152.222 741.333 152.667z"/>
<path style="fill:#a3dbf8; stroke:none;" d="M792 152L793 153L792 152z"/>
<path style="fill:#f8ce8f; stroke:none;" d="M818 152L819 153L818 152z"/>
<path style="fill:#b0e8ff; stroke:none;" d="M850 152L851 153L850 152z"/>
<path style="fill:#ffe8b0; stroke:none;" d="M898 152L898 156C898.71 154.241 898.71 153.76 898 152z"/>
<path style="fill:#6e3333; stroke:none;" d="M899 152L899 156C899.71 154.24 899.71 153.76 899 152z"/>
<path style="fill:#336db0; stroke:none;" d="M938 152L939 153L938 152z"/>
<path style="fill:#894d33; stroke:none;" d="M942 152L943 153L942 152z"/>
<path style="fill:#ca9b68; stroke:none;" d="M962 152L963 153L962 152z"/>
<path style="fill:#333333; stroke:none;" d="M963.329 153.086C959.68 155.206 963.033 160.072 966.577 158.377C970.395 156.552 966.882 151.021 963.329 153.086z"/>
<path style="fill:#3a5a82; stroke:none;" d="M967 152L968 153L967 152z"/>
<path style="fill:#ffe8b0; stroke:none;" d="M701 153L701 157C701.71 155.24 701.71 154.759 701 153z"/>
<path style="fill:#6e3333; stroke:none;" d="M702 153L702 157C702.71 155.24 702.71 154.759 702 153z"/>
<path style="fill:#ffffd1; stroke:none;" d="M728.333 153.667C728.278 153.722 728.222 154.778 728.667 154.333C728.722 154.278 728.778 153.222 728.333 153.667z"/>
<path style="fill:#8f3333; stroke:none;" d="M729.333 153.667C729.278 153.722 729.222 154.778 729.667 154.333C729.722 154.278 729.778 153.222 729.333 153.667z"/>
<path style="fill:#d19133; stroke:none;" d="M759 153L759 157C759.71 155.24 759.71 154.759 759 153z"/>
<path style="fill:#ebb16e; stroke:none;" d="M780 153L781 154L780 153z"/>
<path style="fill:#969796; stroke:none;" d="M793 153C794.248 153.685 794.548 153.749 796 154C794.751 153.315 794.452 153.251 793 153z"/>
<path style="fill:#33337b; stroke:none;" d="M798 153L798 157C798.71 155.24 798.71 154.759 798 153z"/>
<path style="fill:#bdf2ff; stroke:none;" d="M799 153L799 157C799.71 155.241 799.71 154.759 799 153z"/>
<path style="fill:#a96033; stroke:none;" d="M818 153L819 154L818 153z"/>
<path style="fill:#3a7abd; stroke:none;" d="M850 153L851 154L850 153z"/>
<path style="fill:#d19754; stroke:none;" d="M961 153L962 154L961 153z"/>
<path style="fill:#335396; stroke:none;" d="M968 153L969 154L968 153z"/>
<path style="fill:#ffe8b7; stroke:none;" d="M720 154L721 155L720 154z"/>
<path style="fill:#47718f; stroke:none;" d="M722 154L723 155L722 154z"/>
<path style="fill:#b0ceeb; stroke:none;" d="M723 154L724 155L723 154z"/>
<path style="fill:#ffe2a9; stroke:none;" d="M780 154L781 155L780 154z"/>
<path style="fill:#f2bb7b; stroke:none;" d="M817 154L818 155L817 154z"/>
<path style="fill:#548ac4; stroke:none;" d="M824 154L825 155L824 154z"/>
<path style="fill:#f2eff2; stroke:none;" d="M825 154C827.89 155.213 830.874 154.998 834 155C831.11 153.787 828.126 154.002 825 154z"/>
<path style="fill:#b79761; stroke:none;" d="M834 154L835 155L834 154z"/>
<path style="fill:#8fcef8; stroke:none;" d="M851 154L852 155L851 154z"/>
<path style="fill:#89c1e5; stroke:none;" d="M909 154L910 155L909 154z"/>
<path style="fill:#d89e4d; stroke:none;" d="M928 154L929 155L928 154z"/>
<path style="fill:#ffce8f; stroke:none;" d="M960 154L960 157C960.696 155.446 960.696 155.554 960 154z"/>
<path style="fill:#6eb1eb; stroke:none;" d="M969 154L969 157C969.696 155.446 969.696 155.554 969 154z"/>
<path style="fill:#3391d1; stroke:none;" d="M716.333 155.667C716.278 155.722 716.222 156.778 716.667 156.333C716.722 156.278 716.778 155.222 716.333 155.667z"/>
<path style="fill:#ebb16e; stroke:none;" d="M720.333 155.667C720.278 155.722 720.222 156.778 720.667 156.333C720.722 156.278 720.778 155.222 720.333 155.667z"/>
<path style="fill:#758796; stroke:none;" d="M725 155L726 156L725 155z"/>
<path style="fill:#cac8b7; stroke:none;" d="M726.667 155.333C726.222 155.778 727.278 155.722 727.333 155.667C727.778 155.222 726.722 155.278 726.667 155.333z"/>
<path style="fill:#a37a5b; stroke:none;" d="M728 155L729 156L728 155z"/>
<path style="fill:#61abe5; stroke:none;" d="M740 155L741 156L740 155z"/>
<path style="fill:#33336e; stroke:none;" d="M773 155L773 158C773.696 156.446 773.696 156.554 773 155z"/>
<path style="fill:#b0e8ff; stroke:none;" d="M774.333 155.667C774.278 155.722 774.222 156.778 774.667 156.333C774.722 156.278 774.778 155.222 774.333 155.667z"/>
<path style="fill:#c4873a; stroke:none;" d="M781 155L782 156L781 155z"/>
<path style="fill:#8f4d33; stroke:none;" d="M817 155L818 156L817 155z"/>
<path style="fill:#333d89; stroke:none;" d="M823 155L824 156L823 155z"/>
<path style="fill:#b77733; stroke:none;" d="M835 155L836 156L835 155z"/>
<path style="fill:#33539c; stroke:none;" d="M851 155L852 156L851 155z"/>
<path style="fill:#ffe2a9; stroke:none;" d="M928 155L929 156L928 155z"/>
<path style="fill:#33538f; stroke:none;" d="M739 156L740 157L739 156z"/>
<path style="fill:#965a3a; stroke:none;" d="M782 156L783 157L782 156z"/>
<path style="fill:#b06d33; stroke:none;" d="M816 156L816 159C816.696 157.446 816.696 157.554 816 156z"/>
<path style="fill:#549ed8; stroke:none;" d="M823 156L824 157L823 156z"/>
<path style="fill:#f8ce8f; stroke:none;" d="M835 156L836 157L835 156z"/>
<path style="fill:#54a1de; stroke:none;" d="M852.333 156.667C852.278 156.722 852.222 157.778 852.667 157.333C852.722 157.278 852.778 156.222 852.333 156.667z"/>
<path style="fill:#ca8a3a; stroke:none;" d="M899 156L900 157L899 156z"/>
<path style="fill:#d19754; stroke:none;" d="M929 156L930 157L929 156z"/>
<path style="fill:#6e6d33; stroke:none;" d="M943 156L944 157L943 156z"/>
<path style="fill:#b77733; stroke:none;" d="M702 157L703 158L702 157z"/>
<path style="fill:#82bef2; stroke:none;" d="M716 157L717 158L716 157z"/>
<path style="fill:#825333; stroke:none;" d="M721 157L722 158L721 157z"/>
<path style="fill:#b7e5ff; stroke:none;" d="M739 157L740 158L739 157z"/>
<path style="fill:#ffd59c; stroke:none;" d="M759 157L760 158L759 157z"/>
<path style="fill:#ca9b6e; stroke:none;" d="M783 157L784 158L783 157z"/>
<path style="fill:#5497d1; stroke:none;" d="M798 157L799 158L798 157z"/>
<path style="fill:#b7efff; stroke:none;" d="M823 157L824 158L823 157z"/>
<path style="fill:#a96033; stroke:none;" d="M836 157L837 158L836 157z"/>
<path style="fill:#d1914d; stroke:none;" d="M870 157L871 158L870 157z"/>
<path style="fill:#965a3a; stroke:none;" d="M900 157L901 158L900 157z"/>
<path style="fill:#5b8ea9; stroke:none;" d="M911 157L912 158L911 157z"/>
<path style="fill:#966733; stroke:none;" d="M912 157L913 158L912 157z"/>
<path style="fill:#b77740; stroke:none;" d="M930 157L931 158L930 157z"/>
<path style="fill:#335382; stroke:none;" d="M941 157L942 158L941 157z"/>
<path style="fill:#b7e2ff; stroke:none;" d="M942 157L943 158L942 157z"/>
<path style="fill:#e5ab61; stroke:none;" d="M943 157L944 158L943 157z"/>
<path style="fill:#8f4d33; stroke:none;" d="M961 157L962 158L961 157z"/>
<path style="fill:#333d89; stroke:none;" d="M968 157L969 158L968 157z"/>
<path style="fill:#9c7147; stroke:none;" d="M703 158L704 159L703 158z"/>
<path style="fill:#75a1d8; stroke:none;" d="M715 158L716 159L715 158z"/>
<path style="fill:#dec1a3; stroke:none;" d="M722 158L723 159L722 158z"/>
<path style="fill:#7b6447; stroke:none;" d="M723 158L724 159L723 158z"/>
<path style="fill:#6e9bca; stroke:none;" d="M737 158L738 159L737 158z"/>
<path style="fill:#deb189; stroke:none;" d="M760 158L761 159L760 158z"/>
<path style="fill:#476489; stroke:none;" d="M772 158L773 159L772 158z"/>
<path style="fill:#e5d5b7; stroke:none;" d="M785 158L786 159L785 158z"/>
<path style="fill:#a99789; stroke:none;" d="M786 158L787 159L786 158z"/>
<path style="fill:#5b5a47; stroke:none;" d="M787.667 158.333C787.222 158.778 788.278 158.722 788.333 158.667C788.778 158.222 787.722 158.278 787.667 158.333z"/>
<path style="fill:#5b6a7b; stroke:none;" d="M793.667 158.333C793.222 158.778 794.278 158.722 794.333 158.667C794.778 158.222 793.722 158.278 793.667 158.333z"/>
<path style="fill:#b0c1d1; stroke:none;" d="M795.667 158.333C795.222 158.778 796.278 158.722 796.333 158.667C796.778 158.222 795.722 158.278 795.667 158.333z"/>
<path style="fill:#82bbe5; stroke:none;" d="M822 158L823 159L822 158z"/>
<path style="fill:#f8d8a3; stroke:none;" d="M836 158L837 159L836 158z"/>
<path style="fill:#755340; stroke:none;" d="M837 158L838 159L837 158z"/>
<path style="fill:#476489; stroke:none;" d="M851 158L852 159L851 158z"/>
<path style="fill:#b0845b; stroke:none;" d="M871 158L872 159L871 158z"/>
<path style="fill:#3a4a7b; stroke:none;" d="M883 158L884 159L883 158z"/>
<path style="fill:#b7e5ff; stroke:none;" d="M884 158L885 159L884 158z"/>
<path style="fill:#ca9b6e; stroke:none;" d="M901 158L902 159L901 158z"/>
<path style="fill:#3a5a7b; stroke:none;" d="M909 158L910 159L909 158z"/>
<path style="fill:#a3c8eb; stroke:none;" d="M910 158L911 159L910 158z"/>
<path style="fill:#e5b575; stroke:none;" d="M912 158L913 159L912 158z"/>
<path style="fill:#5b9bd1; stroke:none;" d="M923 158L924 159L923 158z"/>
<path style="fill:#d1a168; stroke:none;" d="M931 158L932 159L931 158z"/>
<path style="fill:#7ba1ca; stroke:none;" d="M940 158L941 159L940 158z"/>
<path style="fill:#bd8768; stroke:none;" d="M944 158L945 159L944 158z"/>
<path style="fill:#89bbe5; stroke:none;" d="M953 158L954 159L953 158z"/>
<path style="fill:#f8dba9; stroke:none;" d="M961 158L962 159L961 158z"/>
<path style="fill:#a9dbf8; stroke:none;" d="M968 158L969 159L968 158z"/>
<path style="fill:#969789; stroke:none;" d="M726.667 159.333C726.222 159.778 727.278 159.722 727.333 159.667C727.778 159.222 726.722 159.278 726.667 159.333z"/>
<path style="fill:#5b5d5b; stroke:none;" d="M728 159C729.769 159.779 731.036 159.912 733 160C731.231 159.221 729.964 159.088 728 159z"/>
<path style="fill:#a3b1c4; stroke:none;" d="M733.667 159.333C733.222 159.778 734.278 159.722 734.333 159.667C734.778 159.222 733.722 159.278 733.667 159.333z"/>
<path style="fill:#969796; stroke:none;" d="M904 159C905.248 159.685 905.548 159.749 907 160C905.752 159.315 905.452 159.251 904 159z"/>
<path style="fill:#d8b8a9; stroke:none;" d="M933 159L934 160L933 159z"/>
<path style="fill:#968775; stroke:none;" d="M934 159L935 160L934 159z"/>
<path style="fill:#5b5d68; stroke:none;" d="M935.667 159.333C935.222 159.778 936.278 159.722 936.333 159.667C936.778 159.222 935.722 159.278 935.667 159.333z"/>
<path style="fill:#7b8ea3; stroke:none;" d="M937 159L938 160L937 159z"/>
<path style="fill:#b0c8de; stroke:none;" d="M938 159L939 160L938 159z"/>
<path style="fill:#d1b1a3; stroke:none;" d="M963 159L964 160L963 159z"/>
<path style="fill:#5b7489; stroke:none;" d="M964.667 159.333C964.222 159.778 965.278 159.722 965.333 159.667C965.778 159.222 964.722 159.278 964.667 159.333z"/>
<path style="fill:#96abc4; stroke:none;" d="M966 159L967 160L966 159z"/>
<path style="fill:#f1f1f1; stroke:none;" d="M255 200C263.226 198.473 271.661 199 280 199L320 199L446 199L840 199L1234 199L1360 199L1400 199C1408.34 199 1416.77 198.473 1425 200C1420.92 196.292 1413.32 198 1408 198L1365 198L1192 198L511 198L321 198L273 198C267.503 198 259.206 196.176 255 200z"/>
<path style="fill:#cccccc; stroke:none;" d="M258 197C266.118 200.407 279.203 198 288 198L357 198L595 198L1422 198C1413.88 194.593 1400.8 197 1392 197L1323 197L1085 197L258 197z"/>
<path style="fill:#fafafa; stroke:none;" d="M257 199C265.118 202.407 278.203 200 287 200L356 200L595 200L1423 200C1414.88 196.593 1401.8 199 1393 199L1324 199L1085 199L257 199z"/>
<path style="fill:#cccccc; stroke:none;" d="M255 200L255 228C257.604 221.793 257.604 206.207 255 200z"/>
<path style="fill:#ffffff; stroke:none;" d="M256 200C256 207 255.953 214.001 256.001 221C256.02 223.725 255.729 227.245 258.318 228.972C262.034 231.452 269.715 230 274 230L315 230L470 230L1177 230L1356 230L1403 230C1407.93 230 1417.43 231.806 1421.68 228.972C1424.27 227.245 1423.98 223.725 1424 221C1424.05 214.001 1424 206.999 1424 200L256 200z"/>
<path style="fill:#cccccc; stroke:none;" d="M1424 200C1424 206.666 1424.05 213.334 1424 220C1423.98 223.299 1424.08 227.061 1420.85 228.972C1415.84 231.939 1405.68 230 1400 230L1347 230L1152 230L258 230C264.678 232.802 274.784 231 282 231L335 231L519 231L1159 231L1368 231L1407 231C1411.28 231 1418.97 232.452 1422.68 229.972C1425.27 228.245 1424.98 224.725 1425 222C1425.05 215.343 1426.59 206.164 1424 200z"/>
<path style="fill:#e8e8e8; stroke:none;" d="M255 228C256.103 229.457 256.543 229.897 258 231C257.101 228.877 257.124 228.899 255 228z"/>
<path style="fill:#9ec5df; stroke:none;" d="M792.667 251.333C792.222 251.778 793.278 251.722 793.333 251.667C793.778 251.222 792.722 251.278 792.667 251.333z"/>
<path style="fill:#599cc9; stroke:none;" d="M794.667 251.333C794.222 251.778 795.278 251.722 795.333 251.667C795.778 251.222 794.722 251.278 794.667 251.333z"/>
<path style="fill:#2980b9; stroke:none;" d="M796 251C803.399 254.105 814.993 252 823 252L884 252C876.601 248.895 865.007 251 857 251L796 251z"/>
<path style="fill:#77afd3; stroke:none;" d="M884 251C885.248 251.685 885.548 251.749 887 252C885.752 251.315 885.451 251.251 884 251z"/>
<path style="fill:#b8dbf2; stroke:none;" d="M789 252L790 253L789 252z"/>
<path style="fill:#3396d9; stroke:none;" d="M781 257C784.959 258.661 789.74 258 794 258L817 258L899 258C890.557 250.102 878.682 252 868 252L816 252C803.276 252 792.489 250.956 781 257z"/>
<path style="fill:#77bae7; stroke:none;" d="M889 252L890 253L889 252z"/>
<path style="fill:#b8dbf2; stroke:none;" d="M890 252L891 253L890 252z"/>
<path style="fill:#94c8ec; stroke:none;" d="M787 253L788 254L787 253M892 253L893 254L892 253M785 254L786 255L785 254M894 254L895 255L894 254z"/>
<path style="fill:#b8dbf2; stroke:none;" d="M783 255L784 256L783 255M896 255L897 256L896 255z"/>
<path style="fill:#85c0e8; stroke:none;" d="M782 256L783 257L782 256M897 256L898 257L897 256z"/>
<path style="fill:#3294d6; stroke:none;" d="M775 266L905 266C900.758 255.089 888.715 258 879 258L803 258C792.97 258 779.396 254.694 775 266z"/>
<path style="fill:#84bfe6; stroke:none;" d="M776 262L777 263L776 262M903 262L904 263L903 262z"/>
<path style="fill:#b8daf0; stroke:none;" d="M775 263L776 264L775 263M904 263L905 264L904 263z"/>
<path style="fill:#93c6e8; stroke:none;" d="M774 265L775 266L774 265M905 265L906 266L905 265z"/>
<path style="fill:#3191d1; stroke:none;" d="M772 274C778.822 274 786.148 274.769 792.911 273.867C796.481 273.391 799.266 271.026 803.001 271.148C806.076 271.248 808.94 272.611 812 272.896C821.187 273.75 830.774 273 840 273C852.211 273 864.135 273.644 876 271L876 278C883.379 276.33 885.917 279.965 886 287L909 287C909 281.769 910.197 270.558 905.347 267.028C903.155 265.432 899.541 266.001 897 266L879 266L809 266L785 266C781.99 266 777.246 265.149 774.653 267.028C772.445 268.628 772.254 271.546 772 274z"/>
<path style="fill:#93c6e7; stroke:none;" d="M773 267L774 268L773 267M906 267L907 268L906 267z"/>
<path style="fill:#b7d9ef; stroke:none;" d="M772 269L773 270L772 269M907 269L908 270L907 269z"/>
<path style="fill:#8ed3f3; stroke:none;" d="M798 271L799 272L798 271z"/>
<path style="fill:#ffffff; stroke:none;" d="M794 286C794.528 287.835 794.845 289.223 796.318 290.591C804.819 298.484 817.668 285.386 804.995 280.468C802.409 279.465 799.675 278.715 797 278L797 275C802.933 273.292 804.927 275.246 810 278C808.985 271.579 798.382 267.292 795.647 275.105C793.002 282.663 803.612 281.553 806.364 285.417C809.676 290.066 801.628 290.194 799.174 288.699C797.319 287.569 796.076 286.646 794 286z"/>
<path style="fill:#9bbad9; stroke:none;" d="M806 271L807 272L806 271z"/>
<path style="fill:#2fc0f2; stroke:none;" d="M872 271L872 293C874.219 287.713 874.219 276.287 872 271z"/>
<path style="fill:#ffffff; stroke:none;" d="M873 271L873 293L875 293C875 290.222 874.65 277.776 880.687 280.921C884.187 282.745 883 289.795 883 293L885 293C885 285.316 886.111 273.692 875 279L875 271L873 271z"/>
<path style="fill:#f2e3e5; stroke:none;" d="M875 271L875 279C876.161 276.23 876.161 273.77 875 271z"/>
<path style="fill:#a1cce9; stroke:none;" d="M771.333 272.667C771.278 272.722 771.222 273.778 771.667 273.333C771.722 273.278 771.778 272.222 771.333 272.667z"/>
<path style="fill:#58c7f1; stroke:none;" d="M796 272L797 273L796 272z"/>
<path style="fill:#79a0d0; stroke:none;" d="M808 272L809 273L808 272z"/>
<path style="fill:#a1cce9; stroke:none;" d="M908.333 272.667C908.278 272.722 908.222 273.778 908.667 273.333C908.722 273.278 908.778 272.222 908.333 272.667z"/>
<path style="fill:#bcd6ee; stroke:none;" d="M800 273C801.506 273.683 802.315 273.826 804 274C802.494 273.317 801.685 273.174 800 273z"/>
<path style="fill:#308ecd; stroke:none;" d="M809 273L811 278L807 278C806.268 275.795 805.6 274.396 802.961 274.205C801.399 274.092 798.52 274.694 798.921 276.87C799.506 280.036 807.369 281.408 809.961 281.617C814.682 281.996 817.195 276.576 821.995 277.377C825.895 278.027 827.031 282.004 830.259 283.592C833.43 285.151 837.708 283.441 841 283L841 280C837.415 280.104 834.406 280.937 831 282C833.262 277.691 839.376 274.889 843.258 279.434C845.051 281.533 844.938 284.417 845 287L847 287L847 277L857 277C853.726 280.618 851.292 281.737 851 287L856 287C857.584 278.263 864.988 274.11 871 282C868.722 281.493 865.556 279.722 863.24 280.657C860.106 281.923 859.799 287.08 862.503 288.953C865.199 290.82 868.169 287.778 871 289C872.982 284.276 872 278.09 872 273L809 273z"/>
<path style="fill:#5ea8d9; stroke:none;" d="M771.333 274.667C771.278 274.722 771.222 275.778 771.667 275.333C771.722 275.278 771.778 274.222 771.333 274.667z"/>
<path style="fill:#2d88c4; stroke:none;" d="M773 298C780.12 296.305 787.719 297 795 297L830 297L879 297C888.134 297 898.077 295.876 907 298L909 287L886 287L886 293L882 293L882 280C874.664 280.585 876 287.156 876 293L872 293L872 289C869.601 290.509 867.002 292.725 864.004 292.624C859.096 292.46 856.222 287.396 851 287L851 293L847 293L847 287L845 287L845 293C837.686 292.39 829.392 294.129 832 284C826.787 285.225 822.432 286 817 286C819.698 290.888 823.363 289.443 828 288C825.636 294.113 818.165 294.51 814.5 289C812.503 285.998 813.929 282.842 810 282C813.652 293.79 797.728 296.7 794 286C795.86 286.831 797.457 288.014 799.29 288.879C801.338 289.845 809.909 290.018 806.914 285.659C803.175 280.219 794.217 283.317 795 274L779.001 274.001C777.043 274.014 774.381 273.702 772.742 275.028C770.792 276.606 771.031 279.765 771.004 282C770.936 287.503 771.958 292.627 773 298z"/>
<path style="fill:#5ea8d9; stroke:none;" d="M908.333 274.667C908.278 274.722 908.222 275.778 908.667 275.333C908.722 275.278 908.778 274.222 908.333 274.667z"/>
<path style="fill:#30d4f7; stroke:none;" d="M794 275L794 279C794.71 277.241 794.71 276.759 794 275z"/>
<path style="fill:#ebdbdc; stroke:none;" d="M797 275L797 278C797.696 276.446 797.696 276.554 797 275z"/>
<path style="fill:#cabecd; stroke:none;" d="M810 275L810 278C810.696 276.446 810.696 276.554 810 275z"/>
<path style="fill:#8de2fc; stroke:none;" d="M807.333 276.667C807.278 276.722 807.222 277.778 807.667 277.333C807.722 277.278 807.778 276.222 807.333 276.667z"/>
<path style="fill:#79c7ef; stroke:none;" d="M817 277L818 278L817 277z"/>
<path style="fill:#ffffff; stroke:none;" d="M828 288C823.149 289.16 819.794 291.255 817 286L828 286C827.82 283.33 827.621 280.63 825.427 278.742C821.252 275.149 815.277 278.025 814.282 283.015C812.389 292.518 823.648 296.292 828 288z"/>
<path style="fill:#86a5cd; stroke:none;" d="M824 277L825 278L824 277z"/>
<path style="fill:#ffffff; stroke:none;" d="M832 282C836.277 280.183 838.601 279.261 842 283C839.154 283.362 834.726 283.382 832.608 285.6C827.337 291.118 836.899 293.797 841 291C842.595 292.297 843.018 292.535 845 293C844.069 289.088 845.232 282.717 842.972 279.434C839.648 274.605 833.345 277.568 832 282z"/>
<path style="fill:#c9d2e2; stroke:none;" d="M841 277L842 278L841 277z"/>
<path style="fill:#2ebff1; stroke:none;" d="M847 277L847 293C848.812 288.681 848.812 281.319 847 277z"/>
<path style="fill:#ffffff; stroke:none;" d="M848 277L848 293L850 293C850 289.58 849.396 285.307 851.174 282.224C852.372 280.148 854.627 278.937 856 277C853.706 277.303 852.789 277.578 851 279C849.814 277.964 849.396 277.661 848 277z"/>
<path style="fill:#d7e2f7; stroke:none;" d="M850.333 277.667C850.278 277.722 850.222 278.778 850.667 278.333C850.722 278.278 850.778 277.222 850.333 277.667z"/>
<path style="fill:#79d0f5; stroke:none;" d="M851 277L852 278L851 277z"/>
<path style="fill:#948ecc; stroke:none;" d="M856.333 277.667C856.278 277.722 856.222 278.778 856.667 278.333C856.722 278.278 856.778 277.222 856.333 277.667z"/>
<path style="fill:#ffffff; stroke:none;" d="M870 287C868.292 287.891 866.09 289.81 864.068 289.674C859.902 289.393 859.389 282.925 862.434 280.886C864.732 279.347 867.766 281.18 870 282C867.072 272.731 856.883 278.643 858.149 286.995C859.312 294.674 868.812 294.275 870 287z"/>
<path style="fill:#bcc7df; stroke:none;" d="M867 277L868 278L867 277z"/>
<path style="fill:#a1dff7; stroke:none;" d="M877 277L878 278L877 277z"/>
<path style="fill:#9ab5d3; stroke:none;" d="M883 277L884 278L883 277z"/>
<path style="fill:#8dddf8; stroke:none;" d="M832 278L833 279L832 278z"/>
<path style="fill:#8d9ecc; stroke:none;" d="M843 278L844 279L843 278z"/>
<path style="fill:#94dffa; stroke:none;" d="M859 278L860 279L859 278z"/>
<path style="fill:#c9c2d3; stroke:none;" d="M884 278L885 279L884 278z"/>
<path style="fill:#a1e9fd; stroke:none;" d="M795 279L796 280L795 279z"/>
<path style="fill:#9abedb; stroke:none;" d="M801 279L802 280L801 279z"/>
<path style="fill:#aeedfd; stroke:none;" d="M815 279L816 280L815 279z"/>
<path style="fill:#79bee6; stroke:none;" d="M820.667 279.333C820.222 279.778 821.278 279.722 821.333 279.667C821.778 279.222 820.722 279.278 820.667 279.333z"/>
<path style="fill:#c9c1d3; stroke:none;" d="M826 279L827 280L826 279z"/>
<path style="fill:#65d2f7; stroke:none;" d="M831 279L832 280L831 279z"/>
<path style="fill:#79b7de; stroke:none;" d="M836 279C837.248 279.685 837.548 279.749 839 280C837.752 279.315 837.452 279.251 836 279z"/>
<path style="fill:#9ad5f3; stroke:none;" d="M853 279C854.248 279.685 854.548 279.749 856 280C854.752 279.315 854.451 279.251 853 279z"/>
<path style="fill:#8de0fc; stroke:none;" d="M858 279L859 280L858 279z"/>
<path style="fill:#79b7e1; stroke:none;" d="M863 279C864.248 279.685 864.548 279.749 866 280C864.752 279.315 864.452 279.251 863 279z"/>
<path style="fill:#c3cee5; stroke:none;" d="M878 279L879 280L878 279z"/>
<path style="fill:#86c9ed; stroke:none;" d="M879.667 279.333C879.222 279.778 880.278 279.722 880.333 279.667C880.778 279.222 879.722 279.278 879.667 279.333z"/>
<path style="fill:#948dcc; stroke:none;" d="M885 279L886 280L885 279z"/>
<path style="fill:#9abad8; stroke:none;" d="M805 280L806 281L805 280z"/>
<path style="fill:#65d7f8; stroke:none;" d="M814 280L815 281L814 280z"/>
<path style="fill:#8d9dcb; stroke:none;" d="M818 280L819 281L818 280z"/>
<path style="fill:#2f8cca; stroke:none;" d="M817 283L825 283C822.465 279.501 819.855 280.087 817 283z"/>
<path style="fill:#9a9dcb; stroke:none;" d="M827 280L828 281L827 280z"/>
<path style="fill:#d0f6fd; stroke:none;" d="M831.333 280.667C831.278 280.722 831.222 281.778 831.667 281.333C831.722 281.278 831.778 280.222 831.333 280.667z"/>
<path style="fill:#c9c1d2; stroke:none;" d="M834 280L835 281L834 280z"/>
<path style="fill:#8c8bc9; stroke:none;" d="M844 280L844 288C845.161 285.23 845.161 282.77 844 280z"/>
<path style="fill:#c9c1d2; stroke:none;" d="M851 280L852 281L851 280z"/>
<path style="fill:#b5b5d2; stroke:none;" d="M861 280L862 281L861 280z"/>
<path style="fill:#b5becb; stroke:none;" d="M870.333 280.667C870.278 280.722 870.222 281.778 870.667 281.333C870.722 281.278 870.778 280.222 870.333 280.667z"/>
<path style="fill:#f1e1e0; stroke:none;" d="M885 280L885 293C886.591 289.209 886.591 283.791 885 280z"/>
<path style="fill:#86d5f7; stroke:none;" d="M797 281L798 282L797 281z"/>
<path style="fill:#799dcb; stroke:none;" d="M808 281L809 282L808 281z"/>
<path style="fill:#bcafcb; stroke:none;" d="M817 281L818 282L817 281z"/>
<path style="fill:#6bd9f8; stroke:none;" d="M824 281L825 282L824 281z"/>
<path style="fill:#bcf0ff; stroke:none;" d="M841.333 281.667C841.278 281.722 841.222 282.778 841.667 282.333C841.722 282.278 841.778 281.222 841.333 281.667z"/>
<path style="fill:#798dcb; stroke:none;" d="M851 281L852 282L851 281z"/>
<path style="fill:#ddffff; stroke:none;" d="M857 281L857 288C858.059 285.466 858.059 283.534 857 281z"/>
<path style="fill:#6bdbfa; stroke:none;" d="M867 281L868 282L867 281z"/>
<path style="fill:#948dcb; stroke:none;" d="M876 281L877 282L876 281z"/>
<path style="fill:#2ebff1; stroke:none;" d="M882 281L882 293C883.512 289.396 883.512 284.604 882 281z"/>
<path style="fill:#6bc3e9; stroke:none;" d="M799 282L800 283L799 282z"/>
<path style="fill:#bcbbd1; stroke:none;" d="M809 282L810 283L809 282z"/>
<path style="fill:#2ed3f6; stroke:none;" d="M813 282L813 288C813.951 285.715 813.951 284.285 813 282z"/>
<path style="fill:#d0f9ff; stroke:none;" d="M825.333 282.667C825.278 282.722 825.222 283.778 825.667 283.333C825.722 283.278 825.778 282.222 825.333 282.667z"/>
<path style="fill:#ddd2c6; stroke:none;" d="M850 282L850 293C851.431 289.59 851.431 285.41 850 282z"/>
<path style="fill:#8c8cca; stroke:none;" d="M860.333 282.667C860.278 282.722 860.222 283.778 860.667 283.333C860.722 283.278 860.778 282.222 860.333 282.667z"/>
<path style="fill:#f1e1e0; stroke:none;" d="M875 282L875 293C876.431 289.59 876.431 285.41 875 282z"/>
<path style="fill:#c2e4f8; stroke:none;" d="M803.667 283.333C803.222 283.778 804.278 283.722 804.333 283.667C804.778 283.222 803.722 283.278 803.667 283.333z"/>
<path style="fill:#aeafca; stroke:none;" d="M810 283L811 284L810 283z"/>
<path style="fill:#78b6dd; stroke:none;" d="M817 283C819.613 284.098 822.164 283.993 825 284C822.387 282.902 819.836 283.007 817 283z"/>
<path style="fill:#a18bc9; stroke:none;" d="M828 283L828 286C828.696 284.446 828.696 284.554 828 283z"/>
<path style="fill:#93ceec; stroke:none;" d="M837.667 283.333C837.222 283.778 838.278 283.722 838.333 283.667C838.778 283.222 837.722 283.278 837.667 283.333z"/>
<path style="fill:#2e8bea; stroke:none;" d="M856 283L856 288C856.83 285.97 856.83 285.03 856 283z"/>
<path style="fill:#7fcdf1; stroke:none;" d="M806 284L807 285L806 284z"/>
<path style="fill:#ae8bc8; stroke:none;" d="M811 285L811 288C811.696 286.446 811.696 286.554 811 285z"/>
<path style="fill:#c9f8ff; stroke:none;" d="M840 285L841 288C841.685 286.751 841.749 286.452 842 285L840 285M808.333 286.667C808.278 286.722 808.222 287.778 808.667 287.333C808.722 287.278 808.778 286.222 808.333 286.667z"/>
<path style="fill:#86b5da; stroke:none;" d="M835 286C836.248 286.685 836.548 286.749 838 287C836.752 286.315 836.452 286.251 835 286z"/>
<path style="fill:#2e8ac7; stroke:none;" d="M834 287L834 290C837.692 289.88 839.777 289.687 841 286L834 287z"/>
<path style="fill:#ae9bc7; stroke:none;" d="M860.333 286.667C860.278 286.722 860.222 287.778 860.667 287.333C860.722 287.278 860.778 286.222 860.333 286.667z"/>
<path style="fill:#9a8ac7; stroke:none;" d="M797 287L798 288L797 287z"/>
<path style="fill:#a1e9ff; stroke:none;" d="M830 287L830 290C830.696 288.446 830.696 288.554 830 287z"/>
<path style="fill:#d6cbc7; stroke:none;" d="M870.333 287.667C870.278 287.722 870.222 288.778 870.667 288.333C870.722 288.278 870.778 287.222 870.333 287.667z"/>
<path style="fill:#a79bc7; stroke:none;" d="M817 288L818 289L817 288z"/>
<path style="fill:#f1e1e0; stroke:none;" d="M833.333 288.667C833.278 288.722 833.222 289.778 833.667 289.333C833.722 289.278 833.778 288.222 833.333 288.667z"/>
<path style="fill:#ae89c6; stroke:none;" d="M844 288L844 292C844.71 290.24 844.71 289.759 844 288z"/>
<path style="fill:#8ce1fb; stroke:none;" d="M857 288L858 289L857 288z"/>
<path style="fill:#7fdefa; stroke:none;" d="M867 288L868 289L867 288z"/>
<path style="fill:#85a1c6; stroke:none;" d="M799 289L800 290L799 289z"/>
<path style="fill:#77cbf0; stroke:none;" d="M806 289L807 290L806 289z"/>
<path style="fill:#c9bdc6; stroke:none;" d="M810 289L811 290L810 289z"/>
<path style="fill:#7edbf9; stroke:none;" d="M814 289L815 290L814 289z"/>
<path style="fill:#859ac6; stroke:none;" d="M818 289L819 290L818 289z"/>
<path style="fill:#aeadc6; stroke:none;" d="M861 289L862 290L861 289z"/>
<path style="fill:#9389c6; stroke:none;" d="M870 289L871 290L870 289z"/>
<path style="fill:#7ab4da; stroke:none;" d="M771 290L771 293C771.696 291.446 771.696 291.554 771 290z"/>
<path style="fill:#8cdbf9; stroke:none;" d="M795 290L796 291L795 290z"/>
<path style="fill:#b4d4eb; stroke:none;" d="M801 290C802.506 290.683 803.315 290.826 805 291C803.494 290.317 802.685 290.174 801 290z"/>
<path style="fill:#77b4e2; stroke:none;" d="M820 290C821.249 290.685 821.548 290.749 823 291C821.752 290.315 821.452 290.251 820 290z"/>
<path style="fill:#8c89c6; stroke:none;" d="M827 290L828 291L827 290z"/>
<path style="fill:#77b4da; stroke:none;" d="M835 290C836.248 290.685 836.548 290.749 838 291C836.752 290.315 836.452 290.251 835 290z"/>
<path style="fill:#8cdffb; stroke:none;" d="M858 290L859 291L858 290z"/>
<path style="fill:#77b4e2; stroke:none;" d="M863 290C864.248 290.685 864.548 290.749 866 291C864.752 290.315 864.452 290.251 863 290z"/>
<path style="fill:#7ab4da; stroke:none;" d="M908 290L908 293C908.696 291.446 908.696 291.554 908 290z"/>
<path style="fill:#77cbf0; stroke:none;" d="M796 291L797 292L796 291z"/>
<path style="fill:#93a1c5; stroke:none;" d="M826 291L827 292L826 291z"/>
<path style="fill:#8cdff9; stroke:none;" d="M831 291L832 292L831 291z"/>
<path style="fill:#93ddf9; stroke:none;" d="M841 291L842 292L841 291z"/>
<path style="fill:#8cdbf9; stroke:none;" d="M859 291L860 292L859 291z"/>
<path style="fill:#8cccee; stroke:none;" d="M798 292L799 293L798 292z"/>
<path style="fill:#7ea1c5; stroke:none;" d="M807 292L808 293L807 292z"/>
<path style="fill:#77c4ec; stroke:none;" d="M817 292L818 293L817 292z"/>
<path style="fill:#bbc6db; stroke:none;" d="M824 292L825 293L824 292z"/>
<path style="fill:#77c4ec; stroke:none;" d="M832 292L833 293L832 292z"/>
<path style="fill:#99b2cc; stroke:none;" d="M839 292L840 293L839 292z"/>
<path style="fill:#2dc3f2; stroke:none;" d="M841 292L842 293L841 292z"/>
<path style="fill:#a0b2cc; stroke:none;" d="M867 292L868 293L867 292z"/>
<path style="fill:#72afd7; stroke:none;" d="M772 295L773 296L772 295M907 295L908 296L907 295z"/>
<path style="fill:#b5d5ea; stroke:none;" d="M772 296L773 297L772 296M907 296L908 297L907 296z"/>
<path style="fill:#2b85c0; stroke:none;" d="M774 297C774.67 300.48 776.07 303.037 778 306C786.024 304.09 794.791 305 803 305L847 305L881 305C887.97 305 895.183 304.377 902 306C903.93 303.037 905.33 300.479 906 297L774 297z"/>
<path style="fill:#90bfde; stroke:none;" d="M773 298L774 299L773 298M906 298L907 299L906 298z"/>
<path style="fill:#8fbfde; stroke:none;" d="M774 300L775 301L774 300M905 300L906 301L905 300z"/>
<path style="fill:#b5d4e9; stroke:none;" d="M775 302L776 303L775 302M904 302L905 303L904 302z"/>
<path style="fill:#80b5d9; stroke:none;" d="M776 303L777 304L776 303M903 303L904 304L903 303z"/>
<path style="fill:#2a82bb; stroke:none;" d="M779 305C783.959 314.699 795.657 314 805 314L875 314C884.343 314 896.041 314.699 901 305L779 305z"/>
<path style="fill:#80b4d6; stroke:none;" d="M782 309L783 310L782 309M897 309L898 310L897 309z"/>
<path style="fill:#b5d3e7; stroke:none;" d="M783 310L784 311L783 310M896 310L897 311L896 310z"/>
<path style="fill:#8ebddb; stroke:none;" d="M785 311L786 312L785 311M894 311L895 312L894 311z"/>
<path style="fill:#8ebcdb; stroke:none;" d="M787 312L788 313L787 312M892 312L893 313L892 312z"/>
<path style="fill:#b4d3e7; stroke:none;" d="M789 313L790 314L789 313z"/>
<path style="fill:#70aad0; stroke:none;" d="M790 313L791 314L790 313M889 313L890 314L889 313z"/>
<path style="fill:#b4d3e7; stroke:none;" d="M890 313L891 314L890 313z"/>
<path style="fill:#a3d0ef; stroke:none;" d="M792.667 314.333C792.222 314.778 793.278 314.722 793.333 314.667C793.778 314.222 792.722 314.278 792.667 314.333z"/>
<path style="fill:#61afe3; stroke:none;" d="M794.667 314.333C794.222 314.778 795.278 314.722 795.333 314.667C795.778 314.222 794.722 314.278 794.667 314.333z"/>
<path style="fill:#3498db; stroke:none;" d="M796 314C803.399 317.105 814.993 315 823 315L883 315C875.601 311.895 864.007 314 856 314L796 314z"/>
<path style="fill:#61afe3; stroke:none;" d="M883 314C884.248 314.685 884.548 314.749 886 315C884.752 314.315 884.452 314.251 883 314z"/>
<path style="fill:#cee6f6; stroke:none;" d="M886.667 314.333C886.222 314.778 887.278 314.722 887.333 314.667C887.778 314.222 886.722 314.278 886.667 314.333z"/>
<path style="fill:#010101; stroke:none;" d="M0 920C8.35746 923.507 21.9404 921 31 921L100 921C91.6425 917.493 78.0596 920 69 920L0 920z"/>
<path style="fill:#343434; stroke:none;" d="M100 920C104.72 921.981 110.92 921 116 921L148 921C143.28 919.019 137.08 920 132 920L100 920z"/>
<path style="fill:#010101; stroke:none;" d="M148 920C151.959 921.661 156.74 921 161 921L187 921L276 921L587 921L1664 921C1660.04 919.339 1655.26 920 1651 920L1625 920L1536 920L1225 920L148 920z"/>
</svg>
